<?xml version="1.0" encoding="utf-8"?>
<!-- Generator: Adobe Illustrator 16.0.0, SVG Export Plug-In . SVG Version: 6.00 Build 0)  -->
<!DOCTYPE svg PUBLIC "-//W3C//DTD SVG 1.1//EN" "http://www.w3.org/Graphics/SVG/1.1/DTD/svg11.dtd">
<svg version="1.1" id="圖層_1" xmlns="http://www.w3.org/2000/svg" xmlns:xlink="http://www.w3.org/1999/xlink" x="0px" y="0px"
	 width="80px" height="80px" viewBox="0 0 80 80" enable-background="new 0 0 80 80" xml:space="preserve">
<g id="user">
</g>
<g id="聯絡我們_x2F_門市據點查詢">
</g>
<g id="聯絡我們_x2F_服務專線查詢">
</g>
<g id="聯絡我們_x2F_客服信箱">
</g>
<g id="基本資料_x2F_電子發票歸戶設定">
</g>
<g id="基本資料_x2F_修改密碼">
</g>
<g id="基本資料_x2F_修改資料">
</g>
<g id="服務設定_x2F_其他設定">
</g>
<g id="服務設定_x2F_漫遊服務設定">
</g>
<g id="服務設定_x2F_加值服務設定">
</g>
<g id="服務設定_x2F_基本服務設定">
</g>
<g id="繳款儲值_x2F_4G流量儲值">
</g>
<g id="繳款儲值_x2F_預付卡儲值">
</g>
<g id="繳款儲值_x2F_轉帳_xFF0F_匯款帳號查詢">
</g>
<g id="繳款儲值_x2F_繳費通知簡訊">
</g>
<g id="繳款儲值_x2F_線上繳款">
</g>
<g id="帳單資費_x2F_展延信用卡轉帳代繳期限">
</g>
<g id="帳單資費_x2F_資費試算">
</g>
<g id="帳單資費_x2F_數據資費方案異動">
</g>
<g id="帳單資費_x2F_語音資費方案異動">
</g>
<g id="帳單資費_x2F_通話明細申請">
</g>
<g id="帳單資費_x2F_補寄帳單申請">
</g>
<g id="帳單資費_x2F_修改帳單地址">
</g>
<g id="帳單資費_x2F_未出帳查詢">
</g>
<g id="帳單資費_x2F_帳單查詢">
</g>
<g id="帳單資費_x2F_無紙化帳單">
</g>
<g id="我的門號_x2F_預付卡查詢">
</g>
<g id="我的門號_x2F_查詢已申裝服務">
</g>
<g id="我的門號_x2F_我的門號資訊">
</g>
<g id="我的門號_x2F_查詢門號預約紀錄">
</g>
<g id="我的門號_x2F_預約換選號">
</g>
<g id="::_我的門號">
</g>
<g id="::_帳單資費">
</g>
<g id="::_繳款儲存">
</g>
<g id="::_服務設定">
</g>
<path fill="#777777" d="M44,59H13.5C11.019,59,9,56.98,9,54.5v-31c0-2.481,2.019-4.5,4.5-4.5h46c2.48,0,4.5,2.019,4.5,4.5V38
	c0,0.829-0.672,1.5-1.5,1.5S61,38.829,61,38V23.5c0-0.827-0.673-1.5-1.5-1.5h-46c-0.827,0-1.5,0.673-1.5,1.5v31
	c0,0.827,0.673,1.5,1.5,1.5H44c0.828,0,1.5,0.671,1.5,1.5S44.828,59,44,59z"/>
<path fill="#777777" d="M56,31H41c-0.828,0-1.5-0.671-1.5-1.5S40.172,28,41,28h15c0.828,0,1.5,0.671,1.5,1.5S56.828,31,56,31z"/>
<path fill="#777777" d="M56,36H41c-0.828,0-1.5-0.671-1.5-1.5S40.172,33,41,33h15c0.828,0,1.5,0.671,1.5,1.5S56.828,36,56,36z"/>
<path fill="#777777" d="M56,41H41c-0.828,0-1.5-0.671-1.5-1.5S40.172,38,41,38h15c0.828,0,1.5,0.671,1.5,1.5S56.828,41,56,41z"/>
<path fill="#777777" d="M56,46H45c-0.828,0-1.5-0.671-1.5-1.5S44.172,43,45,43h11c0.828,0,1.5,0.671,1.5,1.5S56.828,46,56,46z"/>
<path fill="#777777" d="M15.998,49.579c-0.267,0-0.536-0.071-0.78-0.222c-0.705-0.432-0.929-1.351-0.499-2.057
	c0.144-0.236,3.454-5.57,8.996-5.801c-1.57-1.271-4.072-3.669-3.983-8.19c0.046-5.392,4.214-7.31,7.77-7.31h0.406
	c3.554,0,7.722,1.918,7.77,7.325c0.091,4.627-2.611,6.904-4.111,8.052c5.624,0.154,8.984,5.628,9.128,5.869
	c0.428,0.709,0.199,1.631-0.511,2.059c-0.709,0.424-1.63,0.198-2.057-0.509c-0.052-0.083-2.864-4.571-7.01-4.418l-0.078,0.003
	l-0.078-0.005c-2.268-0.155-2.785-1.69-2.891-2.157c-0.239-1.066,0.218-2.21,1.095-2.78c0.112-0.089,0.237-0.183,0.37-0.284
	c1.354-1.027,3.209-2.434,3.143-5.786C32.643,29.424,29.331,29,27.908,29h-0.406c-1.423,0-4.736,0.424-4.771,4.352
	c-0.069,3.519,2.037,5.167,3.296,6.153l0.214,0.169c0.872,0.564,1.332,1.68,1.1,2.71c-0.103,0.456-0.613,1.954-2.893,2.11
	l-0.077,0.005l-0.078-0.003c-0.066-0.002-0.134-0.003-0.2-0.003c-4.072,0-6.786,4.327-6.813,4.372
	C16.996,49.324,16.503,49.579,15.998,49.579z"/>
<g id="::_手機專區">
</g>
<g id="::_常見問題">
</g>
<g id="::_客服幫忙">
</g>
<g id="::_意見反應">
</g>
<g>
	
		<linearGradient id="SVGID_1_" gradientUnits="userSpaceOnUse" x1="199.4375" y1="313.084" x2="207.2295" y2="313.084" gradientTransform="matrix(0.7071 0.7071 -0.7071 0.7071 137.9177 -314.1188)">
		<stop  offset="0" style="stop-color:#0066FF"/>
		<stop  offset="1" style="stop-color:#1485FF"/>
	</linearGradient>
	<polygon fill="url(#SVGID_1_)" points="56.018,60.846 50.508,55.336 64.61,41.232 70.119,46.742 	"/>
	
		<linearGradient id="SVGID_2_" gradientUnits="userSpaceOnUse" x1="689.0059" y1="-301.1108" x2="696.6602" y2="-301.1108" gradientTransform="matrix(-0.7071 -0.7071 0.7071 -0.7071 750.9485 340.2076)">
		<stop  offset="0" style="stop-color:#0066FF"/>
		<stop  offset="1" style="stop-color:#1485FF"/>
	</linearGradient>
	<polygon fill="url(#SVGID_2_)" points="53.182,63.584 45.788,65.565 47.769,58.172 	"/>
	
		<linearGradient id="SVGID_3_" gradientUnits="userSpaceOnUse" x1="199.4375" y1="296.3867" x2="207.2285" y2="296.3867" gradientTransform="matrix(0.7071 0.7071 -0.7071 0.7071 137.9177 -314.1188)">
		<stop  offset="0" style="stop-color:#0066FF"/>
		<stop  offset="1" style="stop-color:#1485FF"/>
	</linearGradient>
	<path fill="url(#SVGID_3_)" d="M72.906,43.955l3.148-3.147c0.436-0.435,0.436-1.14,0-1.575l-3.936-3.935
		c-0.435-0.435-1.14-0.435-1.573,0l-3.148,3.148L72.906,43.955z"/>
</g>
</svg>
