<?xml version="1.0" encoding="utf-8"?>
<!-- Generator: Adobe Illustrator 16.0.0, SVG Export Plug-In . SVG Version: 6.00 Build 0)  -->
<svg version="1.2" baseProfile="tiny" xmlns="http://www.w3.org/2000/svg" xmlns:xlink="http://www.w3.org/1999/xlink" x="0px"
	 y="0px" width="80px" height="80px" viewBox="0 0 80 80" xml:space="preserve">
<g id="user">
</g>
<g id="聯絡我們_x2F_門市據點查詢">
</g>
<g id="聯絡我們_x2F_服務專線查詢">
</g>
<g id="聯絡我們_x2F_客服信箱">
</g>
<g id="基本資料_x2F_電子發票歸戶設定">
</g>
<g id="基本資料_x2F_修改密碼">
</g>
<g id="基本資料_x2F_修改資料">
</g>
<g id="服務設定_x2F_其他設定">
</g>
<g id="服務設定_x2F_漫遊服務設定">
</g>
<g id="服務設定_x2F_加值服務設定">
</g>
<g id="服務設定_x2F_基本服務設定">
</g>
<g id="繳款儲值_x2F_4G流量儲值">
</g>
<g id="繳款儲值_x2F_預付卡儲值">
</g>
<g id="繳款儲值_x2F_轉帳_xFF0F_匯款帳號查詢">
</g>
<g id="繳款儲值_x2F_繳費通知簡訊">
</g>
<g id="繳款儲值_x2F_線上繳款">
</g>
<g id="帳單資費_x2F_展延信用卡轉帳代繳期限">
</g>
<g id="帳單資費_x2F_資費試算">
</g>
<g id="帳單資費_x2F_數據資費方案異動">
</g>
<g id="帳單資費_x2F_語音資費方案異動">
</g>
<g id="帳單資費_x2F_通話明細申請">
</g>
<g id="帳單資費_x2F_補寄帳單申請">
</g>
<g id="帳單資費_x2F_修改帳單地址">
</g>
<g id="帳單資費_x2F_未出帳查詢">
</g>
<g id="帳單資費_x2F_帳單查詢">
</g>
<g id="帳單資費_x2F_無紙化帳單">
</g>
<g id="我的門號_x2F_預付卡查詢">
</g>
<g id="我的門號_x2F_查詢已申裝服務">
</g>
<g id="我的門號_x2F_我的門號資訊">
</g>
<g id="我的門號_x2F_查詢門號預約紀錄">
</g>
<g id="我的門號_x2F_預約換選號">
</g>
<g id="::_我的門號">
</g>
<g id="::_帳單資費">
</g>
<g id="::_繳款儲存">
</g>
<g id="::_服務設定">
</g>
<g id="::_基本設定">
</g>
<g id="::_手機專區">
	<path fill="#777777" d="M47.5,68h-23c-2.481,0-4.5-2.019-4.5-4.5v-47c0-2.481,2.019-4.5,4.5-4.5h23c2.481,0,4.5,2.019,4.5,4.5V41
		c0,0.829-0.672,1.5-1.5,1.5S49,41.829,49,41V16.5c0-0.827-0.673-1.5-1.5-1.5h-23c-0.827,0-1.5,0.673-1.5,1.5v47
		c0,0.827,0.673,1.5,1.5,1.5h23c0.785,0,1.5-0.804,1.5-1.688c0-0.829,0.672-1.5,1.5-1.5s1.5,0.671,1.5,1.5
		C52,65.854,49.939,68,47.5,68z"/>
	<path fill="#777777" d="M39,21h-6c-0.828,0-1.5-0.671-1.5-1.5S32.172,18,33,18h6c0.828,0,1.5,0.671,1.5,1.5S39.828,21,39,21z"/>
	<path fill="#777777" d="M35.875,63.625c-2.206,0-4-1.794-4-4s1.794-4,4-4s4,1.794,4,4S38.081,63.625,35.875,63.625z M35.875,58.625
		c-0.552,0-1,0.449-1,1s0.448,1,1,1s1-0.449,1-1S36.427,58.625,35.875,58.625z"/>
	<path fill="#777777" d="M37,17h-2c-0.276,0-0.5-0.224-0.5-0.5S34.724,16,35,16h2c0.276,0,0.5,0.224,0.5,0.5S37.276,17,37,17z"/>
	<linearGradient id="SVGID_1_" gradientUnits="userSpaceOnUse" x1="41" y1="53.998" x2="73.5" y2="53.998">
		<stop  offset="0" style="stop-color:#0066FF"/>
		<stop  offset="1" style="stop-color:#1485FF"/>
	</linearGradient>
	<path fill="url(#SVGID_1_)" d="M60.125,70c-0.024,0-0.05,0-0.074,0c-0.844,0-1.577-0.402-1.832-1.209l-3.73-11.68L42.365,53.1
		c-0.797-0.267-1.342-0.98-1.364-1.82c-0.022-0.84,0.482-1.593,1.265-1.901l28.5-11.244c0.742-0.292,1.589-0.113,2.152,0.453
		c0.563,0.566,0.735,1.415,0.438,2.156L61.981,68.931C61.677,69.691,60.939,70,60.125,70z M48.839,51.095l7.884,2.639
		c0.606,0.203,1.079,0.683,1.271,1.292l2.352,7.422l7.57-18.884L48.839,51.095z"/>
</g>
<g id="::_常見問題">
</g>
<g id="::_客服幫忙">
</g>
<g id="::_意見反應">
</g>
</svg>
