<?xml version="1.0" encoding="utf-8"?>
<!-- Generator: Adobe Illustrator 16.0.0, SVG Export Plug-In . SVG Version: 6.00 Build 0)  -->
<svg version="1.2" baseProfile="tiny" xmlns="http://www.w3.org/2000/svg" xmlns:xlink="http://www.w3.org/1999/xlink" x="0px"
	 y="0px" width="80px" height="80px" viewBox="0 0 80 80" xml:space="preserve">
<g id="user">
</g>
<g id="聯絡我們_x2F_門市據點查詢">
</g>
<g id="聯絡我們_x2F_服務專線查詢">
</g>
<g id="聯絡我們_x2F_客服信箱">
</g>
<g id="基本資料_x2F_電子發票歸戶設定">
</g>
<g id="基本資料_x2F_修改密碼">
</g>
<g id="基本資料_x2F_修改資料">
</g>
<g id="服務設定_x2F_其他設定">
</g>
<g id="服務設定_x2F_漫遊服務設定">
</g>
<g id="服務設定_x2F_加值服務設定">
</g>
<g id="服務設定_x2F_基本服務設定">
</g>
<g id="繳款儲值_x2F_4G流量儲值">
</g>
<g id="繳款儲值_x2F_預付卡儲值">
</g>
<g id="繳款儲值_x2F_轉帳_xFF0F_匯款帳號查詢">
</g>
<g id="繳款儲值_x2F_繳費通知簡訊">
</g>
<g id="繳款儲值_x2F_線上繳款">
</g>
<g id="帳單資費_x2F_展延信用卡轉帳代繳期限">
</g>
<g id="帳單資費_x2F_資費試算">
</g>
<g id="帳單資費_x2F_數據資費方案異動">
</g>
<g id="帳單資費_x2F_語音資費方案異動">
</g>
<g id="帳單資費_x2F_通話明細申請">
</g>
<g id="帳單資費_x2F_補寄帳單申請">
</g>
<g id="帳單資費_x2F_修改帳單地址">
</g>
<g id="帳單資費_x2F_未出帳查詢">
</g>
<g id="帳單資費_x2F_帳單查詢">
</g>
<g id="帳單資費_x2F_無紙化帳單">
</g>
<g id="我的門號_x2F_預付卡查詢">
</g>
<g id="我的門號_x2F_查詢已申裝服務">
</g>
<g id="我的門號_x2F_我的門號資訊">
</g>
<g id="我的門號_x2F_查詢門號預約紀錄">
</g>
<g id="我的門號_x2F_預約換選號">
</g>
<g id="::_我的門號">
	<path fill="#777777" d="M14.999,55.548c-0.265,0-0.533-0.07-0.776-0.217c-0.708-0.43-0.935-1.35-0.506-2.058
		c0.264-0.436,6.594-10.646,16.931-10.337c0.806-0.066,1.37-0.315,1.445-0.642c0.06-0.259-0.111-0.543-0.199-0.594l-0.205-0.138
		l-0.366-0.291c-2.651-2.1-8.167-6.47-7.992-15.362C23.419,15.702,32.056,13,36.61,13h0.764c4.554,0,13.189,2.702,13.279,12.926
		c0.173,8.739-5.256,12.992-7.865,15.036l-0.699,0.527c-0.094,0.06-0.267,0.377-0.193,0.671c0.09,0.355,0.626,0.604,1.441,0.672
		c2.1-0.067,4.198,0.316,6.231,1.125c0.77,0.306,1.146,1.178,0.84,1.948c-0.305,0.77-1.176,1.148-1.948,0.84
		c-1.673-0.665-3.387-0.971-5.104-0.912l-0.078,0.003l-0.078-0.005c-2.262-0.156-3.845-1.287-4.236-3.027
		c-0.331-1.473,0.327-3.105,1.538-3.861l0.434-0.343c2.565-2.01,6.859-5.373,6.716-12.631C47.568,16.279,38.417,16,37.374,16H36.61
		c-1.043,0-10.196,0.279-10.28,9.953c-0.146,7.421,4.408,11.029,6.855,12.967l0.296,0.236c1.223,0.761,1.867,2.333,1.537,3.796
		c-0.145,0.642-0.877,2.752-4.237,2.982l-0.078,0.005l-0.077-0.003c-8.649-0.293-14.289,8.798-14.345,8.89
		C16,55.292,15.505,55.548,14.999,55.548z"/>
	<linearGradient id="SVGID_1_" gradientUnits="userSpaceOnUse" x1="60.4331" y1="71.6328" x2="60.4331" y2="39.5005">
		<stop  offset="0" style="stop-color:#7EBD2B"/>
		<stop  offset="1" style="stop-color:#90DA31"/>
	</linearGradient>
	<path fill="url(#SVGID_1_)" d="M75.737,44.621c1.172-1.171,1.172-3.071,0-4.242c-1.172-1.172-3.07-1.172-4.242,0
		c0,0-8.847,8.938-8.986,9.21c-1.836-1.152-3.999-1.83-6.321-1.83c-6.583,0-11.938,5.355-11.938,11.938s5.355,11.936,11.938,11.936
		s11.938-5.354,11.938-11.936c0-2.21-0.615-4.275-1.666-6.053C66.757,53.501,75.737,44.621,75.737,44.621z M56.188,68.633
		c-4.928,0-8.938-4.008-8.938-8.936s4.009-8.938,8.938-8.938s8.938,4.009,8.938,8.938S61.116,68.633,56.188,68.633z"/>
</g>
<g id="::_帳單資費">
</g>
<g id="::_繳款儲存">
</g>
<g id="::_服務設定">
</g>
<g id="::_基本設定">
</g>
<g id="::_手機專區">
</g>
<g id="::_常見問題">
</g>
<g id="::_客服幫忙">
</g>
<g id="::_意見反應">
</g>
</svg>
