<?xml version="1.0" encoding="utf-8"?>
<!-- Generator: Adobe Illustrator 16.0.0, SVG Export Plug-In . SVG Version: 6.00 Build 0)  -->
<svg version="1.2" baseProfile="tiny" xmlns="http://www.w3.org/2000/svg" xmlns:xlink="http://www.w3.org/1999/xlink" x="0px"
	 y="0px" width="80px" height="80px" viewBox="0 0 80 80" xml:space="preserve">
<g id="user">
</g>
<g id="聯絡我們_x2F_門市據點查詢">
</g>
<g id="聯絡我們_x2F_服務專線查詢">
</g>
<g id="聯絡我們_x2F_客服信箱">
</g>
<g id="基本資料_x2F_電子發票歸戶設定">
</g>
<g id="基本資料_x2F_修改密碼">
</g>
<g id="基本資料_x2F_修改資料">
</g>
<g id="服務設定_x2F_其他設定">
</g>
<g id="服務設定_x2F_漫遊服務設定">
</g>
<g id="服務設定_x2F_加值服務設定">
</g>
<g id="服務設定_x2F_基本服務設定">
</g>
<g id="繳款儲值_x2F_4G流量儲值">
</g>
<g id="繳款儲值_x2F_預付卡儲值">
</g>
<g id="繳款儲值_x2F_轉帳_xFF0F_匯款帳號查詢">
</g>
<g id="繳款儲值_x2F_繳費通知簡訊">
</g>
<g id="繳款儲值_x2F_線上繳款">
</g>
<g id="帳單資費_x2F_展延信用卡轉帳代繳期限">
</g>
<g id="帳單資費_x2F_資費試算">
</g>
<g id="帳單資費_x2F_數據資費方案異動">
</g>
<g id="帳單資費_x2F_語音資費方案異動">
</g>
<g id="帳單資費_x2F_通話明細申請">
</g>
<g id="帳單資費_x2F_補寄帳單申請">
</g>
<g id="帳單資費_x2F_修改帳單地址">
</g>
<g id="帳單資費_x2F_未出帳查詢">
</g>
<g id="帳單資費_x2F_帳單查詢">
</g>
<g id="帳單資費_x2F_無紙化帳單">
</g>
<g id="我的門號_x2F_預付卡查詢">
</g>
<g id="我的門號_x2F_查詢已申裝服務">
</g>
<g id="我的門號_x2F_我的門號資訊">
</g>
<g id="我的門號_x2F_查詢門號預約紀錄">
</g>
<g id="我的門號_x2F_預約換選號">
</g>
<g id="::_我的門號">
</g>
<g id="::_帳單資費">
</g>
<g id="::_繳款儲存">
</g>
<g id="::_服務設定">
	<g>
		<rect x="19" y="15" fill="#777777" width="3" height="12"/>
		<rect x="19" y="34" fill="#777777" width="3" height="31"/>
		<path fill="#777777" d="M20.5,36.5c-3.239,0-5.875-2.636-5.875-5.875s2.636-5.875,5.875-5.875s5.875,2.636,5.875,5.875
			S23.739,36.5,20.5,36.5z M20.5,27.75c-1.585,0-2.875,1.29-2.875,2.875S18.915,33.5,20.5,33.5s2.875-1.29,2.875-2.875
			S22.085,27.75,20.5,27.75z"/>
		<path fill="#777777" d="M35.5,45.5c-3.239,0-5.875-2.636-5.875-5.875s2.636-5.875,5.875-5.875s5.875,2.636,5.875,5.875
			S38.739,45.5,35.5,45.5z M35.5,36.75c-1.585,0-2.875,1.29-2.875,2.875S33.915,42.5,35.5,42.5s2.875-1.29,2.875-2.875
			S37.085,36.75,35.5,36.75z"/>
		<rect x="34" y="15" fill="#777777" width="3" height="20"/>
		<rect x="34" y="44" fill="#777777" width="3" height="21"/>
		<rect x="49" y="15" fill="#777777" width="3" height="27"/>
	</g>
	<linearGradient id="SVGID_1_" gradientUnits="userSpaceOnUse" x1="40.5" y1="54.8438" x2="75.5" y2="54.8438">
		<stop  offset="0" style="stop-color:#7EBD2B"/>
		<stop  offset="1" style="stop-color:#90DA31"/>
	</linearGradient>
	<path fill="url(#SVGID_1_)" d="M75.5,46.492c0.002,0.406-0.16,0.796-0.45,1.08l-4.5,4.406c-0.292,0.286-0.671,0.428-1.05,0.428
		c-0.389,0-0.778-0.15-1.071-0.451c-0.58-0.592-0.57-1.542,0.021-2.121L70.324,48h-4.246L48.609,65H42c-0.828,0-1.5-0.671-1.5-1.5
		S41.172,62,42,62h5.391l17.469-17h5.407l-1.805-1.729c-0.598-0.573-0.618-1.523-0.045-2.121s1.521-0.62,2.121-0.045l4.5,4.313
		C75.331,45.698,75.498,46.086,75.5,46.492z M55.168,51.382L48.609,45H42c-0.828,0-1.5,0.671-1.5,1.5S41.172,48,42,48h5.391
		l5.655,5.504L55.168,51.382z M75.05,62.125l-4.5-4.396c-0.292-0.286-0.671-0.409-1.05-0.409c-0.389,0-0.778,0.189-1.071,0.49
		c-0.58,0.592-0.57,1.62,0.021,2.199L70.324,62h-4.246l-5.894-5.735l-2.121,2.121L64.859,65h5.407l-1.805,1.573
		c-0.598,0.573-0.618,1.366-0.045,1.965s1.521,0.62,2.121,0.045l4.5-4.313c0.293-0.281,0.46-0.664,0.462-1.07
		C75.502,62.794,75.34,62.41,75.05,62.125z"/>
</g>
<g id="::_基本設定">
</g>
<g id="::_手機專區">
</g>
<g id="::_常見問題">
</g>
<g id="::_客服幫忙">
</g>
<g id="::_意見反應">
</g>
</svg>
