<?xml version="1.0" encoding="utf-8"?>
<!-- Generator: Adobe Illustrator 16.0.0, SVG Export Plug-In . SVG Version: 6.00 Build 0)  -->
<svg version="1.2" baseProfile="tiny" xmlns="http://www.w3.org/2000/svg" xmlns:xlink="http://www.w3.org/1999/xlink" x="0px"
	 y="0px" width="80px" height="80px" viewBox="0 0 80 80" xml:space="preserve">
<g id="user">
</g>
<g id="聯絡我們_x2F_門市據點查詢">
</g>
<g id="聯絡我們_x2F_服務專線查詢">
</g>
<g id="聯絡我們_x2F_客服信箱">
</g>
<g id="基本資料_x2F_電子發票歸戶設定">
</g>
<g id="基本資料_x2F_修改密碼">
</g>
<g id="基本資料_x2F_修改資料">
</g>
<g id="服務設定_x2F_其他設定">
</g>
<g id="服務設定_x2F_漫遊服務設定">
</g>
<g id="服務設定_x2F_加值服務設定">
</g>
<g id="服務設定_x2F_基本服務設定">
</g>
<g id="繳款儲值_x2F_4G流量儲值">
</g>
<g id="繳款儲值_x2F_預付卡儲值">
</g>
<g id="繳款儲值_x2F_轉帳_xFF0F_匯款帳號查詢">
</g>
<g id="繳款儲值_x2F_繳費通知簡訊">
</g>
<g id="繳款儲值_x2F_線上繳款">
</g>
<g id="帳單資費_x2F_展延信用卡轉帳代繳期限">
</g>
<g id="帳單資費_x2F_資費試算">
</g>
<g id="帳單資費_x2F_數據資費方案異動">
</g>
<g id="帳單資費_x2F_語音資費方案異動">
</g>
<g id="帳單資費_x2F_通話明細申請">
</g>
<g id="帳單資費_x2F_補寄帳單申請">
</g>
<g id="帳單資費_x2F_修改帳單地址">
</g>
<g id="帳單資費_x2F_未出帳查詢">
</g>
<g id="帳單資費_x2F_帳單查詢">
</g>
<g id="帳單資費_x2F_無紙化帳單">
</g>
<g id="我的門號_x2F_預付卡查詢">
</g>
<g id="我的門號_x2F_查詢已申裝服務">
</g>
<g id="我的門號_x2F_我的門號資訊">
</g>
<g id="我的門號_x2F_查詢門號預約紀錄">
</g>
<g id="我的門號_x2F_預約換選號">
</g>
<g id="::_我的門號">
</g>
<g id="::_帳單資費">
</g>
<g id="::_繳款儲存">
</g>
<g id="::_服務設定">
</g>
<g id="::_基本設定">
</g>
<g id="::_手機專區">
</g>
<g id="::_常見問題">
	<path fill="#777777" d="M19.941,62.976l3.298-10.527C20.791,48.821,19.5,44.621,19.5,40.25c0-12.062,9.813-21.875,21.875-21.875
		S63.25,28.188,63.25,40.25s-9.813,21.875-21.875,21.875c-3.697,0-7.347-0.953-10.599-2.761L19.941,62.976z M31.12,56.087
		l0.592,0.354c2.936,1.756,6.276,2.685,9.663,2.685c10.407,0,18.875-8.467,18.875-18.875s-8.468-18.875-18.875-18.875
		S22.5,29.842,22.5,40.25c0,3.987,1.247,7.812,3.605,11.061l0.443,0.61l-1.99,6.353L31.12,56.087z"/>
	<g>
		<linearGradient id="SVGID_1_" gradientUnits="userSpaceOnUse" x1="41.5156" y1="31.1636" x2="41.5156" y2="53.8661">
			<stop  offset="0" style="stop-color:#1485FF"/>
			<stop  offset="1" style="stop-color:#0066FF"/>
		</linearGradient>
		<path fill="url(#SVGID_1_)" d="M37.983,45.906l-0.078-1.026c-0.079-2.013,0.552-4.064,2.328-6.156
			c1.263-1.5,2.288-2.801,2.288-4.143s-0.907-2.289-2.841-2.328c-1.342,0-2.881,0.434-3.946,1.145l-1.302-4.262
			c1.421-0.829,3.749-1.618,6.59-1.618c5.169,0,7.576,2.881,7.576,6.116c0,3.039-1.895,4.972-3.394,6.669
			c-1.421,1.578-2.052,3.117-2.013,4.893v0.71H37.983z M40.431,54.982c-2.092,0-3.513-1.539-3.513-3.591
			c0-2.131,1.461-3.591,3.513-3.591c2.131,0,3.512,1.46,3.551,3.591c0,2.052-1.381,3.591-3.512,3.591H40.431z"/>
	</g>
</g>
<g id="::_客服幫忙">
</g>
<g id="::_意見反應">
</g>
</svg>
