<?xml version="1.0" encoding="utf-8"?>
<!-- Generator: Adobe Illustrator 16.0.0, SVG Export Plug-In . SVG Version: 6.00 Build 0)  -->
<svg version="1.2" baseProfile="tiny" xmlns="http://www.w3.org/2000/svg" xmlns:xlink="http://www.w3.org/1999/xlink" x="0px"
	 y="0px" width="100px" height="100px" viewBox="0 0 100 100" xml:space="preserve">
<g id="user">
</g>
<g id="聯絡我們_x2F_門市據點查詢">
</g>
<g id="聯絡我們_x2F_服務專線查詢">
</g>
<g id="聯絡我們_x2F_客服信箱">
</g>
<g id="基本資料_x2F_電子發票歸戶設定">
</g>
<g id="基本資料_x2F_修改密碼">
</g>
<g id="基本資料_x2F_修改資料">
</g>
<g id="服務設定_x2F_其他設定">
</g>
<g id="服務設定_x2F_漫遊服務設定">
</g>
<g id="服務設定_x2F_加值服務設定">
</g>
<g id="服務設定_x2F_基本服務設定">
</g>
<g id="繳款儲值_x2F_4G流量儲值">
</g>
<g id="繳款儲值_x2F_預付卡儲值">
</g>
<g id="繳款儲值_x2F_轉帳_xFF0F_匯款帳號查詢">
</g>
<g id="繳款儲值_x2F_繳費通知簡訊">
</g>
<g id="繳款儲值_x2F_線上繳款">
</g>
<g id="帳單資費_x2F_展延信用卡轉帳代繳期限">
</g>
<g id="帳單資費_x2F_資費試算">
</g>
<g id="帳單資費_x2F_數據資費方案異動">
</g>
<g id="帳單資費_x2F_語音資費方案異動">
</g>
<g id="帳單資費_x2F_通話明細申請">
</g>
<g id="帳單資費_x2F_補寄帳單申請">
</g>
<g id="帳單資費_x2F_修改帳單地址">
</g>
<g id="帳單資費_x2F_未出帳查詢">
</g>
<g id="帳單資費_x2F_帳單查詢">
</g>
<g id="帳單資費_x2F_無紙化帳單">
</g>
<g id="我的門號_x2F_預付卡查詢">
</g>
<g id="我的門號_x2F_查詢已申裝服務">
</g>
<g id="我的門號_x2F_我的門號資訊">
</g>
<g id="我的門號_x2F_查詢門號預約紀錄">
</g>
<g id="我的門號_x2F_預約換選號">
</g>
<g id="::_我的門號">
</g>
<g id="::_帳單資費">
</g>
<g id="::_繳款儲存">
</g>
<g id="::_服務設定">
</g>
<g id="::_基本設定">
</g>
<g id="::_手機專區">
</g>
<g id="::_常見問題">
</g>
<g id="::_客服幫忙">
</g>
<g id="::_意見反應">
	<polyline fill="none" stroke="#666666" stroke-width="2" stroke-miterlimit="10" points="58,61 34.247,75.753 11,61 	"/>
	<polyline fill="none" stroke="#666666" stroke-width="2" stroke-miterlimit="10" points="18,57.286 11,61 11,89 58,89 58,61 
		50,56.846 	"/>
	<polyline fill="none" stroke="#666666" stroke-width="2" stroke-miterlimit="10" points="18,66 18,43 50,43 50,66 	"/>
	<line stroke="#FC6308" stroke-width="2" stroke-miterlimit="10" x1="37" y1="50" x2="44" y2="50"/>
	<line stroke="#FC6308" stroke-width="2" stroke-miterlimit="10" x1="25" y1="56" x2="44" y2="56"/>
	<line stroke="#FC6308" stroke-width="2" stroke-miterlimit="10" x1="25" y1="62" x2="44" y2="62"/>
	<circle fill="#F9F9F9" cx="59.583" cy="25.583" r="11.417"/>
	<circle fill="#F9F9F9" cx="80.667" cy="54.666" r="14.5"/>
	<g>
		<path fill="#FC6308" d="M59.66,33.455c-1.06,0-1.78-0.779-1.78-1.82c0-1.08,0.74-1.82,1.801-1.82s1.761,0.74,1.78,1.82
			c0,1.041-0.7,1.82-1.78,1.82H59.66z M58.54,28.814l-0.439-9.061h3.16l-0.439,9.061H58.54z"/>
	</g>
	<g>
		<path fill="#FC6308" d="M78.388,59.56l-0.054-0.705c-0.055-1.382,0.379-2.791,1.599-4.228c0.867-1.029,1.571-1.924,1.571-2.846
			c0-0.921-0.623-1.571-1.951-1.599c-0.921,0-1.978,0.298-2.709,0.786l-0.895-2.927c0.976-0.569,2.574-1.111,4.525-1.111
			c3.55,0,5.203,1.979,5.203,4.2c0,2.087-1.301,3.415-2.33,4.58c-0.977,1.084-1.41,2.141-1.383,3.36v0.488H78.388z M80.068,65.792
			c-1.437,0-2.412-1.057-2.412-2.466c0-1.463,1.003-2.466,2.412-2.466c1.463,0,2.412,1.003,2.438,2.466
			c0,1.409-0.948,2.466-2.411,2.466H80.068z"/>
	</g>
</g>
</svg>
