<?xml version="1.0" encoding="utf-8"?>
<!-- Generator: Adobe Illustrator 16.0.0, SVG Export Plug-In . SVG Version: 6.00 Build 0)  -->
<svg version="1.2" baseProfile="tiny" xmlns="http://www.w3.org/2000/svg" xmlns:xlink="http://www.w3.org/1999/xlink" x="0px"
	 y="0px" width="80px" height="80px" viewBox="0 0 80 80" xml:space="preserve">
<g id="user">
</g>
<g id="聯絡我們_x2F_門市據點查詢">
</g>
<g id="聯絡我們_x2F_服務專線查詢">
</g>
<g id="聯絡我們_x2F_客服信箱">
</g>
<g id="基本資料_x2F_電子發票歸戶設定">
</g>
<g id="基本資料_x2F_修改密碼">
</g>
<g id="基本資料_x2F_修改資料">
</g>
<g id="服務設定_x2F_其他設定">
</g>
<g id="服務設定_x2F_漫遊服務設定">
</g>
<g id="服務設定_x2F_加值服務設定">
</g>
<g id="服務設定_x2F_基本服務設定">
</g>
<g id="繳款儲值_x2F_4G流量儲值">
</g>
<g id="繳款儲值_x2F_預付卡儲值">
</g>
<g id="繳款儲值_x2F_轉帳_xFF0F_匯款帳號查詢">
</g>
<g id="繳款儲值_x2F_繳費通知簡訊">
</g>
<g id="繳款儲值_x2F_線上繳款">
</g>
<g id="帳單資費_x2F_展延信用卡轉帳代繳期限">
</g>
<g id="帳單資費_x2F_資費試算">
</g>
<g id="帳單資費_x2F_數據資費方案異動">
</g>
<g id="帳單資費_x2F_語音資費方案異動">
</g>
<g id="帳單資費_x2F_通話明細申請">
</g>
<g id="帳單資費_x2F_補寄帳單申請">
</g>
<g id="帳單資費_x2F_修改帳單地址">
</g>
<g id="帳單資費_x2F_未出帳查詢">
</g>
<g id="帳單資費_x2F_帳單查詢">
</g>
<g id="帳單資費_x2F_無紙化帳單">
</g>
<g id="我的門號_x2F_預付卡查詢">
</g>
<g id="我的門號_x2F_查詢已申裝服務">
</g>
<g id="我的門號_x2F_我的門號資訊">
</g>
<g id="我的門號_x2F_查詢門號預約紀錄">
</g>
<g id="我的門號_x2F_預約換選號">
</g>
<g id="::_我的門號">
</g>
<g id="::_帳單資費">
</g>
<g id="::_繳款儲存">
	<g>
		<linearGradient id="SVGID_1_" gradientUnits="userSpaceOnUse" x1="45.4355" y1="32.1084" x2="78.9736" y2="32.1084">
			<stop  offset="0" style="stop-color:#7EBD2B"/>
			<stop  offset="1" style="stop-color:#90DA31"/>
		</linearGradient>
		<path fill="url(#SVGID_1_)" d="M78.429,36.792L49.062,21.74c-0.491-0.252-1.094-0.058-1.346,0.434l-2.28,4.449l31.147,15.964
			l2.28-4.449C79.115,37.647,78.921,37.044,78.429,36.792z"/>
		<linearGradient id="SVGID_2_" gradientUnits="userSpaceOnUse" x1="43" y1="43.4614" x2="75.2129" y2="43.4614">
			<stop  offset="0" style="stop-color:#7EBD2B"/>
			<stop  offset="1" style="stop-color:#90DA31"/>
		</linearGradient>
		<path fill="url(#SVGID_2_)" d="M43.043,30.802C43.176,31.139,43,31.534,43,32v7h4v8h-0.056l20.993,10.51
			c0.492,0.252,1.094-0.067,1.347-0.559l5.929-11.631L43.941,29.324L43.043,30.802z M54.244,40.128l6.229,3.193l-0.912,1.78
			l-6.229-3.192L54.244,40.128z"/>
	</g>
	<g>
		<path fill="#777777" d="M49,48H33V37h16V48z M36,45h10v-5H36V45z"/>
		<path fill="#777777" d="M41,59H7c-2.477,0-5-2.523-5-5V32c0-2.598,2.576-4,5-4h34c2.468,0,4,1.533,4,4v5h4v11h-4v6
			C45,56.424,43.598,59,41,59z M7,31c-0.946,0-2,0.411-2,1v22c0,0.822,1.178,2,2,2h34c0.589,0,1-1.054,1-2v-9h4v-5h-4v-8
			c0-0.832-0.168-1-1-1H7z"/>
		<path fill="#777777" d="M5,46H2V24c0-2.598,2.576-4,5-4h34c2.468,0,4,1.533,4,4v2h-3v-2c0-0.832-0.168-1-1-1H7
			c-0.946,0-2,0.411-2,1V46z"/>
		<rect x="9" y="24" fill="#777777" width="31" height="3"/>
	</g>
</g>
<g id="::_服務設定">
</g>
<g id="::_基本設定">
</g>
<g id="::_手機專區">
</g>
<g id="::_常見問題">
</g>
<g id="::_客服幫忙">
</g>
<g id="::_意見反應">
</g>
</svg>
