<?xml version="1.0" encoding="utf-8"?>
<!-- Generator: Adobe Illustrator 16.0.0, SVG Export Plug-In . SVG Version: 6.00 Build 0)  -->
<svg version="1.2" baseProfile="tiny" xmlns="http://www.w3.org/2000/svg" xmlns:xlink="http://www.w3.org/1999/xlink" x="0px"
	 y="0px" width="100px" height="100px" viewBox="0 0 100 100" xml:space="preserve">
<g id="user">
</g>
<g id="聯絡我們_x2F_門市據點查詢">
</g>
<g id="聯絡我們_x2F_服務專線查詢">
</g>
<g id="聯絡我們_x2F_客服信箱">
</g>
<g id="基本資料_x2F_電子發票歸戶設定">
</g>
<g id="基本資料_x2F_修改密碼">
</g>
<g id="基本資料_x2F_修改資料">
</g>
<g id="服務設定_x2F_其他設定">
</g>
<g id="服務設定_x2F_漫遊服務設定">
</g>
<g id="服務設定_x2F_加值服務設定">
</g>
<g id="服務設定_x2F_基本服務設定">
</g>
<g id="繳款儲值_x2F_4G流量儲值">
</g>
<g id="繳款儲值_x2F_預付卡儲值">
</g>
<g id="繳款儲值_x2F_轉帳_xFF0F_匯款帳號查詢">
</g>
<g id="繳款儲值_x2F_繳費通知簡訊">
</g>
<g id="繳款儲值_x2F_線上繳款">
</g>
<g id="帳單資費_x2F_展延信用卡轉帳代繳期限">
</g>
<g id="帳單資費_x2F_資費試算">
</g>
<g id="帳單資費_x2F_數據資費方案異動">
</g>
<g id="帳單資費_x2F_語音資費方案異動">
</g>
<g id="帳單資費_x2F_通話明細申請">
</g>
<g id="帳單資費_x2F_補寄帳單申請">
</g>
<g id="帳單資費_x2F_修改帳單地址">
</g>
<g id="帳單資費_x2F_未出帳查詢">
</g>
<g id="帳單資費_x2F_帳單查詢">
</g>
<g id="帳單資費_x2F_無紙化帳單">
</g>
<g id="我的門號_x2F_預付卡查詢">
</g>
<g id="我的門號_x2F_查詢已申裝服務">
</g>
<g id="我的門號_x2F_我的門號資訊">
</g>
<g id="我的門號_x2F_查詢門號預約紀錄">
</g>
<g id="我的門號_x2F_預約換選號">
</g>
<g id="::_我的門號">
</g>
<g id="::_帳單資費">
</g>
<g id="::_繳款儲存">
</g>
<g id="::_服務設定">
</g>
<g id="::_基本設定">
</g>
<g id="::_手機專區">
</g>
<g id="::_常見問題">
</g>
<g id="::_客服幫忙">
	<circle fill="#F9F9F9" cx="56.875" cy="46.471" r="33.783"/>
	<g>
		<path fill="none" stroke="#666666" stroke-width="3" stroke-miterlimit="10" d="M17.333,45.452
			c-5.265,5.265,0.449,19.329,12.324,31.203c11.875,11.876,25.831,17.292,31.096,12.027c0.175-0.176,1.008-0.702,1.204-0.896
			l5.721-5.722c0.632-0.632,0.82-2.322,0.188-2.954l-9.153-9.153c-0.632-0.632-1.87,0.009-2.502,0.641l-3.433,3.433l-2.289,2.288
			c-1.316,1.317-6.968-2.201-12.656-7.89c-5.687-5.687-9.205-11.339-7.889-12.654l2.288-2.289l3.433-3.432
			c0.633-0.633,0.795-2.348,0.163-2.98l-9.153-9.153c-0.632-0.632-1.844,0.034-2.477,0.667l-5.72,5.72
			C18.132,44.652,17.399,45.385,17.333,45.452z"/>
		<line fill="none" stroke="#666666" stroke-width="3" stroke-miterlimit="10" x1="63.276" y1="85.987" x2="51.809" y2="74.521"/>
		<line fill="none" stroke="#666666" stroke-width="3" stroke-miterlimit="10" x1="31.265" y1="53.977" x2="19.798" y2="42.51"/>
	</g>
	<g>
		<path fill="#FC6308" d="M55.382,44.721c0,0.578-0.199,1.219-0.598,1.922l-5.039,8.801h5.613v2.402h-8.895v-1.699l6.211-10.922
			v-3.387h-3.34v3.41h-2.684V41.17c0-1.109,0.559-1.664,1.676-1.664h5.379c1.117,0,1.676,0.555,1.676,1.664V44.721z"/>
		<path fill="#FC6308" d="M66.69,54.389h-1.395v3.457h-2.613v-3.457h-6.023V52.76l4.559-13.254h2.789c0,0.055,0,0.09,0,0.105
			l-4.277,12.445h2.953v-5.52h2.613v5.52h1.395V54.389z"/>
	</g>
	<g>
		<path fill="#666666" d="M49.877,28.297l-5.68-9.839c-0.895,0.455-1.763,0.952-2.604,1.49l5.675,9.83
			C48.094,29.219,48.966,28.723,49.877,28.297z"/>
		<path fill="#666666" d="M65.279,28.025c0.928,0.395,1.808,0.876,2.652,1.407l5.681-9.839c-0.852-0.52-1.732-0.999-2.637-1.434
			L65.279,28.025z"/>
		<path fill="#666666" d="M75.237,53.009c-0.403,0.923-0.875,1.807-1.415,2.646l9.844,5.684c0.523-0.85,1.004-1.728,1.443-2.63
			L75.237,53.009z"/>
		<path fill="#666666" d="M72.857,33.901c0.612,0.792,1.177,1.622,1.659,2.506l9.816-5.667c-0.489-0.877-1.021-1.726-1.591-2.545
			L72.857,33.901z"/>
		<path fill="#666666" d="M76.822,45.471c0,0.179-0.02,0.352-0.024,0.529h11.348c0.003-0.177,0.013-0.352,0.013-0.529
			c0-0.833-0.043-1.655-0.108-2.471H76.643C76.749,43.811,76.822,44.631,76.822,45.471z"/>
		<path fill="#666666" d="M59,15.215c-0.374-0.014-0.749-0.028-1.126-0.028c-0.63,0-1.253,0.026-1.874,0.064v11.371
			c0.617-0.061,1.241-0.1,1.874-0.1c0.38,0,0.751,0.035,1.126,0.057V15.215z"/>
	</g>
</g>
<g id="::_意見反應">
</g>
</svg>
