<?xml version="1.0" encoding="utf-8"?>
<!-- Generator: Adobe Illustrator 16.0.0, SVG Export Plug-In . SVG Version: 6.00 Build 0)  -->
<svg version="1.2" baseProfile="tiny" xmlns="http://www.w3.org/2000/svg" xmlns:xlink="http://www.w3.org/1999/xlink" x="0px"
	 y="0px" width="80px" height="80px" viewBox="0 0 80 80" xml:space="preserve">
<g id="user">
</g>
<g id="聯絡我們_x2F_門市據點查詢">
</g>
<g id="聯絡我們_x2F_服務專線查詢">
</g>
<g id="聯絡我們_x2F_客服信箱">
</g>
<g id="基本資料_x2F_電子發票歸戶設定">
</g>
<g id="基本資料_x2F_修改密碼">
</g>
<g id="基本資料_x2F_修改資料">
</g>
<g id="服務設定_x2F_其他設定">
</g>
<g id="服務設定_x2F_漫遊服務設定">
</g>
<g id="服務設定_x2F_加值服務設定">
</g>
<g id="服務設定_x2F_基本服務設定">
</g>
<g id="繳款儲值_x2F_4G流量儲值">
</g>
<g id="繳款儲值_x2F_預付卡儲值">
</g>
<g id="繳款儲值_x2F_轉帳_xFF0F_匯款帳號查詢">
</g>
<g id="繳款儲值_x2F_繳費通知簡訊">
</g>
<g id="繳款儲值_x2F_線上繳款">
</g>
<g id="帳單資費_x2F_展延信用卡轉帳代繳期限">
</g>
<g id="帳單資費_x2F_資費試算">
</g>
<g id="帳單資費_x2F_數據資費方案異動">
</g>
<g id="帳單資費_x2F_語音資費方案異動">
</g>
<g id="帳單資費_x2F_通話明細申請">
</g>
<g id="帳單資費_x2F_補寄帳單申請">
</g>
<g id="帳單資費_x2F_修改帳單地址">
</g>
<g id="帳單資費_x2F_未出帳查詢">
</g>
<g id="帳單資費_x2F_帳單查詢">
</g>
<g id="帳單資費_x2F_無紙化帳單">
</g>
<g id="我的門號_x2F_預付卡查詢">
</g>
<g id="我的門號_x2F_查詢已申裝服務">
</g>
<g id="我的門號_x2F_我的門號資訊">
</g>
<g id="我的門號_x2F_查詢門號預約紀錄">
</g>
<g id="我的門號_x2F_預約換選號">
</g>
<g id="::_我的門號">
</g>
<g id="::_帳單資費">
	<polygon fill="#777777" points="58,66.032 51.582,61.134 49.104,64.423 45.821,61.145 42.697,64.26 39.56,61.139 36.416,64.247 
		33.212,61.113 29.987,64.199 26.537,61.033 21,65.805 21,14 45,14 45,17 24,17 24,59.259 26.6,57.019 29.944,60.087 33.235,56.939 
		36.404,60.039 39.565,56.913 42.695,60.026 45.823,56.907 48.783,59.863 51.004,56.918 55,59.968 55,45 58,45 	"/>
	<rect x="28" y="28" fill="#777777" width="6" height="3"/>
	<rect x="28" y="33" fill="#777777" width="14" height="3"/>
	<rect x="28" y="38" fill="#777777" width="14" height="3"/>
	<rect x="28" y="43" fill="#777777" width="14" height="3"/>
	<rect x="28" y="48" fill="#777777" width="14" height="3"/>
	<g>
		<rect x="28" y="53" fill="#777777" width="14" height="3"/>
		<rect x="44" y="53" fill="#777777" width="7" height="3"/>
	</g>
	<rect x="38" y="20" fill="#777777" width="3" height="3"/>
	<rect x="33" y="20" fill="#777777" width="3" height="3"/>
	<rect x="28" y="20" fill="#777777" width="3" height="3"/>
	<linearGradient id="SVGID_1_" gradientUnits="userSpaceOnUse" x1="56" y1="38.25" x2="56" y2="14.7281">
		<stop  offset="0" style="stop-color:#7EBD2B"/>
		<stop  offset="1" style="stop-color:#90DA31"/>
	</linearGradient>
	<path fill="url(#SVGID_1_)" d="M56,37.422l7.984,9.658C63.986,47.052,64,47.028,64,47V13c0-0.552-0.447-1-1-1H49
		c-0.553,0-1,0.448-1,1v34c0,0.028,0.014,0.052,0.016,0.08L56,37.422z"/>
</g>
<g id="::_繳款儲存">
</g>
<g id="::_服務設定">
</g>
<g id="::_基本設定">
</g>
<g id="::_手機專區">
</g>
<g id="::_常見問題">
</g>
<g id="::_客服幫忙">
</g>
<g id="::_意見反應">
</g>
</svg>
